<svg xmlns="http://www.w3.org/2000/svg" id="Layer_1" data-name="Layer 1" viewBox="0 0 1653.27 708.84">
  <path  d="M667.4,1155.73a143.45,143.45,0,0,0,43,6.71q25.5,0,52.36-9.4,75.16-26.18,75.18-110.76a121.07,121.07,0,0,0-11.41-51Q790.9,913.41,716.4,913.4q-67.12,0-86.25,19.81T611,973.82q0,16.11,6,36.92,11.4,36.24,40.27,36.24,28.2,0,51.35-11.74t23.16-35.92q0-24.17-20.81-60.41,67.13,8.05,67.13,97.33,0,55-71.82,55-21.5,0-49-4.7l-55.71-12.76.67,1.35a172.05,172.05,0,0,0-1.34,21.48q0,60.4,47,128.88,62.41,91.95,232.92,128.88v-29.54Q719.76,1267.15,667.4,1155.73Z" transform="translate(-173.36 -645.58)" style="fill: rgb(109, 40, 217); fill-opacity: 1;"/>
  <path  d="M1754.83,836.87A145.22,145.22,0,0,0,1758.2,806q0-47.62-37.26-91.62t-113.1-62.1a254.85,254.85,0,0,0-57.72-6.69q-48.34,0-113.14,24.49t-96.3,60.09L1338,760.38a743.07,743.07,0,0,1,78.72-33.72c12.64-34.42,45.92-58.38,86-58.38,25.71,0,49.11,9.44,66.08,26.46a80.38,80.38,0,0,1,9.57,11.59,164.14,164.14,0,0,1,47,16.44q80.57,43,80.56,92a65.69,65.69,0,0,1-4.07,22.13H1143.32v45.65a148,148,0,0,0-37.59-24.84q-36.26-15.44-57.06-16.11t-22.15-.67q-38.26,0-65.78,14.1A153.83,153.83,0,0,0,918,887.13l-31.8-50.25H173.36l33.57,53h17.45l.67,33.56q110.08,30.88,134.25,109.42-69.14,94.64-112.1,94.64-19.47,0-33.56-20.8l.67,63.09q19.45,16.79,43,16.78,49.67,0,115.46-78.53,53-63.77,95.31-63.77a55.29,55.29,0,0,1,29.54,8.73v221.51h53V889.91H915.52a163.72,163.72,0,0,0-28.62,46.32q23.49,18.79,50.34,49,40.28,44.3,43.64,140.29l162.44-124.85v273.87h53V889.91h56.15v384.63h53V889.91h177.84A290.21,290.21,0,0,0,1425,900c-52.94,14.72-83.28,52.2-89.74,106.74-2.44,21-2.07,41.67,0,62.59,6.67,65.07,29.6,122.46,77.3,168.69,54.7,52.94,144.6,47.54,194-10.65a262.84,262.84,0,0,0,52.78-97.47c8.21-28,12-57.45,12.18-88.27a237.16,237.16,0,0,0-2.59-40.61,159.77,159.77,0,0,0-9.59-35.05c-13.07-32.35-37.27-55.28-75.87-65.71a314.29,314.29,0,0,0-61.12-10.3h179.42v384.63h53V889.91h71.81l-33.55-53ZM497.58,992.61q-20.82-12.08-42.29-12.08-29.55,0-59.74,23.49a235.8,235.8,0,0,0-26.85-53q-26.18-37.59-55-61.09H497.58Zm512.16,55.05.67-16.79q0-64.44-43-97.33Q998.32,902,1042,902q49,0,91.29,48.33Zm607.66-56.53c14.46,74.63-1.55,145.28-57,208.23-32.55,37.08-79.83,36.09-114.1-.53-46.42-49.75-59.51-107.4-63.38-154.9-.86-83.58,26.87-105.14,119.78-105.34,18.09,0,36,.07,53.83,3.51C1590.53,948.67,1612.32,965,1617.4,991.13Z" transform="translate(-173.36 -645.58)" style="fill: rgb(109, 40, 217); fill-opacity: 1;"/>
  <path  d="M1572.85,760.23c.15-40.44-29.44-70-70.09-70.07-38.69-.06-69.53,29.71-69.66,67.22-.13,38.93,30,70.16,67.94,70.39C1541.55,828,1572.71,798.71,1572.85,760.23Z" transform="translate(-173.36 -645.58)" style="fill: rgb(109, 40, 217); fill-opacity: 1;"/>
</svg>
